#define hg_width 32
#define hg_height 32
static unsigned char hg_bits[] = {
   0x00, 0x00, 0x00, 0x00, 0x00, 0x00, 0x00, 0x00, 0x00, 0x00, 0x00, 0x00,
   0x00, 0x00, 0x00, 0x00, 0x00, 0x00, 0x00, 0x00, 0x00, 0x00, 0x00, 0x00,
   0x00, 0x00, 0x00, 0x00, 0x00, 0x00, 0x00, 0x00, 0x00, 0x00, 0x00, 0x00,
   0x30, 0x30, 0xe0, 0x07, 0x30, 0x30, 0xf8, 0x0f, 0x30, 0x30, 0x1c, 0x08,
   0x30, 0x30, 0x0c, 0x00, 0x30, 0x30, 0x06, 0x00, 0xf0, 0x3f, 0x86, 0x0f,
   0xf0, 0x3f, 0x86, 0x0f, 0x30, 0x30, 0x06, 0x0c, 0x30, 0x30, 0x06, 0x0c,
   0x30, 0x30, 0x0c, 0x0c, 0x30, 0x30, 0x1c, 0x0c, 0x30, 0x30, 0xf8, 0x07,
   0x30, 0x30, 0xe0, 0x03, 0x00, 0x00, 0x00, 0x00, 0x00, 0x00, 0x00, 0x00,
   0x00, 0x00, 0x00, 0x00, 0x00, 0x00, 0x00, 0x00, 0x00, 0x00, 0x00, 0x00,
   0x00, 0x00, 0x00, 0x00, 0x00, 0x00, 0x00, 0x00, 0x00, 0x00, 0x00, 0x00,
   0x00, 0x00, 0x00, 0x00, 0x00, 0x00, 0x00, 0x00 };
